<?xml version="1.0" standalone="no"?>
<!DOCTYPE svg PUBLIC "-//W3C//DTD SVG 20010904//EN"
 "http://www.w3.org/TR/2001/REC-SVG-20010904/DTD/svg10.dtd">
<svg version="1.0" xmlns="http://www.w3.org/2000/svg"
 width="265.000000pt" height="650.000000pt" viewBox="0 0 265.000000 650.000000"
 preserveAspectRatio="xMidYMid meet">
<metadata>
Created by potrace 1.13, written by Peter Selinger 2001-2015
</metadata>
<g transform="translate(0.000000,650.000000) scale(0.100000,-0.100000)"
fill="#000000" stroke="none">
<path d="M1289 6481 c-13 -10 -45 -21 -70 -25 -67 -10 -116 -71 -102 -127 7
-30 41 -68 70 -80 37 -14 17 -45 -130 -198 -290 -302 -467 -562 -553 -816 -35
-104 -45 -281 -20 -397 41 -201 150 -383 296 -494 47 -36 48 -38 30 -51 -49
-34 -45 -106 6 -119 24 -6 24 -9 24 -120 0 -87 -3 -114 -13 -114 -19 0 -63
-50 -74 -84 -8 -25 -17 -31 -82 -48 -95 -24 -169 -62 -183 -93 -31 -68 123
-134 396 -170 66 -8 120 -16 121 -18 4 -4 -14 -415 -25 -577 -43 -660 -142
-1128 -260 -1235 -17 -15 -20 -31 -20 -107 l0 -88 -55 0 -55 0 0 -185 c0 -169
-1 -185 -17 -185 -10 0 -37 -9 -61 -20 -50 -22 -72 -64 -72 -133 0 -35 -14
-71 -61 -163 -120 -234 -256 -406 -340 -430 -43 -12 -47 -33 -14 -72 30 -36
34 -94 8 -117 -15 -13 -18 -30 -15 -115 l3 -100 1305 2 1306 3 0 97 c0 76 -4
101 -16 114 -25 24 -20 81 9 116 33 39 29 60 -14 72 -84 24 -220 196 -340 430
-47 92 -61 128 -61 163 0 69 -22 111 -72 133 -24 11 -51 20 -60 20 -17 0 -18
16 -18 185 l0 185 -55 0 -55 0 0 93 c0 79 -3 94 -19 104 -50 31 -123 221 -165
433 -49 242 -87 596 -105 975 -15 296 -19 405 -15 405 2 0 56 7 121 15 201 27
336 68 382 119 21 22 23 29 13 51 -14 31 -88 69 -183 93 -65 17 -74 23 -82 48
-11 35 -43 71 -69 80 -16 5 -18 17 -18 119 0 110 1 113 24 119 51 13 55 85 7
118 -18 13 -15 17 45 66 150 122 252 304 284 506 19 116 9 274 -24 371 -59
172 -172 369 -316 549 l-63 79 -19 -49 c-71 -185 -127 -468 -167 -854 -6 -58
-9 105 -10 515 l-1 601 -46 44 c-64 63 -96 130 -61 130 7 0 26 13 41 29 63 66
21 166 -75 178 -24 3 -55 14 -68 24 -30 24 -42 24 -72 0z"/>
</g>
</svg>
