<?xml version="1.0" standalone="no"?>
<!DOCTYPE svg PUBLIC "-//W3C//DTD SVG 20010904//EN"
 "http://www.w3.org/TR/2001/REC-SVG-20010904/DTD/svg10.dtd">
<svg version="1.0" xmlns="http://www.w3.org/2000/svg"
 width="285.000000pt" height="297.000000pt" viewBox="0 0 285.000000 297.000000"
 preserveAspectRatio="xMidYMid meet">
<metadata>
Created by potrace 1.13, written by Peter Selinger 2001-2015
</metadata>
<g transform="translate(0.000000,297.000000) scale(0.100000,-0.100000)"
fill="#000000" stroke="none">
<path d="M1370 2959 c-32 -13 -78 -56 -96 -91 -20 -39 -18 -117 5 -154 23 -37
74 -78 115 -91 l29 -9 -59 -50 c-33 -28 -138 -108 -234 -178 -236 -171 -347
-269 -405 -355 -173 -262 -123 -588 117 -762 32 -23 58 -48 58 -55 0 -7 -21
-99 -46 -204 -44 -181 -45 -192 -29 -210 43 -47 302 -137 448 -155 31 -4 59
-11 62 -15 8 -14 -91 -96 -148 -123 -92 -43 -127 -48 -440 -56 l-302 -8 -101
-34 c-110 -38 -239 -109 -305 -167 l-41 -37 101 -98 c56 -53 106 -97 112 -97
5 0 36 17 67 39 163 110 249 132 612 156 256 17 320 30 450 92 l94 45 58 -31
c131 -72 226 -92 538 -111 96 -6 204 -16 240 -22 111 -19 239 -73 335 -142
l50 -36 88 88 c108 107 115 117 90 144 -51 58 -184 131 -323 178 l-95 32 -303
9 c-166 5 -321 13 -344 20 -61 16 -146 62 -195 104 -47 40 -55 65 -22 65 31 0
213 38 267 56 93 31 232 104 232 122 0 9 -21 104 -46 210 -26 106 -45 194 -43
196 103 77 136 107 169 150 135 178 146 416 29 624 -50 88 -177 204 -415 380
-121 88 -239 178 -263 199 l-44 39 39 12 c43 13 101 63 115 100 19 48 11 124
-17 164 -45 64 -136 94 -204 67z m120 -934 l0 -84 83 -3 82 -3 0 -50 0 -50
-82 -3 -83 -3 0 -84 0 -85 -55 0 -55 0 0 85 0 85 -85 0 -85 0 0 55 0 55 85 0
85 0 0 85 0 85 55 0 55 0 0 -85z m184 -675 c43 -11 108 -34 143 -50 l65 -30
-25 -42 c-14 -24 -30 -42 -34 -41 -4 1 -53 19 -108 40 l-100 38 -185 0 -185 0
-103 -39 c-112 -41 -119 -41 -147 15 -14 27 -14 28 28 48 66 32 155 61 232 77
102 20 317 12 419 -16z m-12 -348 c85 -23 207 -77 280 -123 51 -33 51 -35 10
-88 l-19 -23 -74 40 c-147 81 -274 114 -429 114 -153 -1 -327 -48 -443 -122
-26 -16 -51 -30 -55 -30 -4 0 -19 18 -35 40 l-27 39 71 41 c120 71 241 115
364 134 72 11 282 -2 357 -22z"/>
</g>
</svg>
