<svg xmlns="http://www.w3.org/2000/svg">
	<symbol id="pawn" width="200pt" height="200pt" viewBox="0 0 200 200">
		<title>A pawn chess piece</title>
		<path d="M963 1949 c-88 -16 -157 -70 -205 -162 -20 -36 -23 -57 -23 -142 0
		-116 16 -156 84 -218 52 -47 73 -52 206 -52 85 0 117 4 142 18 140 76 166 326
		48 465 -60 70 -164 107 -252 91z"/>
		<path d="M761 1308 c-90 -64 -102 -80 -78 -106 34 -38 99 -47 322 -47 171 0
		220 3 266 17 105 33 103 64 -8 138 -64 43 -81 50 -102 43 -32 -10 -255 -10
		-296 0 -26 6 -40 0 -104 -45z"/>
		<path d="M886 1053 c-12 -140 -24 -184 -102 -372 -18 -43 -18 -44 5 -62 54
		-44 200 -60 312 -35 79 17 139 47 139 69 0 7 -13 38 -30 68 -36 68 -67 195
		-76 312 -6 79 -9 87 -26 81 -24 -7 -195 -7 -207 0 -5 4 -12 -23 -15 -61z"/>
		<path d="M1280 649 c0 -61 -87 -99 -243 -106 -85 -5 -123 -2 -174 12 -69 19
		-133 64 -133 94 -1 29 -40 -28 -40 -58 0 -36 34 -67 101 -93 75 -30 275 -37
		374 -14 74 18 149 56 159 81 6 17 -7 56 -29 88 -15 21 -15 21 -15 -4z"/>
		<path d="M605 541 c-46 -28 -66 -56 -72 -98 -9 -72 63 -126 207 -154 85 -16
		405 -17 490 -1 164 32 260 84 260 143 0 32 -41 84 -88 111 -29 17 -30 17 -45
		-6 -39 -59 -221 -102 -397 -93 -134 7 -227 35 -275 82 -40 41 -41 41 -80 16z"/>
		<path d="M1465 256 c-40 -63 -157 -100 -365 -117 -242 -20 -450 20 -545 103
		l-45 40 0 -32 c0 -95 121 -174 306 -199 159 -23 382 -7 516 35 118 38 185 111
		161 177 l-8 24 -20 -31z"/>
	</symbol>

	<symbol id="bishop" width="265pt" height="650pt" viewBox="0 0 265 650">
		<title>A bishop chess piece</title>
		<path d="M1289 6481 c-13 -10 -45 -21 -70 -25 -67 -10 -116 -71 -102 -127 7
		-30 41 -68 70 -80 37 -14 17 -45 -130 -198 -290 -302 -467 -562 -553 -816 -35
		-104 -45 -281 -20 -397 41 -201 150 -383 296 -494 47 -36 48 -38 30 -51 -49
		-34 -45 -106 6 -119 24 -6 24 -9 24 -120 0 -87 -3 -114 -13 -114 -19 0 -63
		-50 -74 -84 -8 -25 -17 -31 -82 -48 -95 -24 -169 -62 -183 -93 -31 -68 123
		-134 396 -170 66 -8 120 -16 121 -18 4 -4 -14 -415 -25 -577 -43 -660 -142
		-1128 -260 -1235 -17 -15 -20 -31 -20 -107 l0 -88 -55 0 -55 0 0 -185 c0 -169
		-1 -185 -17 -185 -10 0 -37 -9 -61 -20 -50 -22 -72 -64 -72 -133 0 -35 -14
		-71 -61 -163 -120 -234 -256 -406 -340 -430 -43 -12 -47 -33 -14 -72 30 -36
		34 -94 8 -117 -15 -13 -18 -30 -15 -115 l3 -100 1305 2 1306 3 0 97 c0 76 -4
		101 -16 114 -25 24 -20 81 9 116 33 39 29 60 -14 72 -84 24 -220 196 -340 430
		-47 92 -61 128 -61 163 0 69 -22 111 -72 133 -24 11 -51 20 -60 20 -17 0 -18
		16 -18 185 l0 185 -55 0 -55 0 0 93 c0 79 -3 94 -19 104 -50 31 -123 221 -165
		433 -49 242 -87 596 -105 975 -15 296 -19 405 -15 405 2 0 56 7 121 15 201 27
		336 68 382 119 21 22 23 29 13 51 -14 31 -88 69 -183 93 -65 17 -74 23 -82 48
		-11 35 -43 71 -69 80 -16 5 -18 17 -18 119 0 110 1 113 24 119 51 13 55 85 7
		118 -18 13 -15 17 45 66 150 122 252 304 284 506 19 116 9 274 -24 371 -59
		172 -172 369 -316 549 l-63 79 -19 -49 c-71 -185 -127 -468 -167 -854 -6 -58
		-9 105 -10 515 l-1 601 -46 44 c-64 63 -96 130 -61 130 7 0 26 13 41 29 63 66
		21 166 -75 178 -24 3 -55 14 -68 24 -30 24 -42 24 -72 0z"/>
	</symbol>
	
	<symbol id="cardinal" width="285pt" height="297pt" viewBox="0 0 285 297">
		<title>A cardinal chess piece</title>
		<path d="M1370 2959 c-32 -13 -78 -56 -96 -91 -20 -39 -18 -117 5 -154 23 -37
		74 -78 115 -91 l29 -9 -59 -50 c-33 -28 -138 -108 -234 -178 -236 -171 -347
		-269 -405 -355 -173 -262 -123 -588 117 -762 32 -23 58 -48 58 -55 0 -7 -21
		-99 -46 -204 -44 -181 -45 -192 -29 -210 43 -47 302 -137 448 -155 31 -4 59
		-11 62 -15 8 -14 -91 -96 -148 -123 -92 -43 -127 -48 -440 -56 l-302 -8 -101
		-34 c-110 -38 -239 -109 -305 -167 l-41 -37 101 -98 c56 -53 106 -97 112 -97
		5 0 36 17 67 39 163 110 249 132 612 156 256 17 320 30 450 92 l94 45 58 -31
		c131 -72 226 -92 538 -111 96 -6 204 -16 240 -22 111 -19 239 -73 335 -142
		l50 -36 88 88 c108 107 115 117 90 144 -51 58 -184 131 -323 178 l-95 32 -303
		9 c-166 5 -321 13 -344 20 -61 16 -146 62 -195 104 -47 40 -55 65 -22 65 31 0
		213 38 267 56 93 31 232 104 232 122 0 9 -21 104 -46 210 -26 106 -45 194 -43
		196 103 77 136 107 169 150 135 178 146 416 29 624 -50 88 -177 204 -415 380
		-121 88 -239 178 -263 199 l-44 39 39 12 c43 13 101 63 115 100 19 48 11 124
		-17 164 -45 64 -136 94 -204 67z m120 -934 l0 -84 83 -3 82 -3 0 -50 0 -50
		-82 -3 -83 -3 0 -84 0 -85 -55 0 -55 0 0 85 0 85 -85 0 -85 0 0 55 0 55 85 0
		85 0 0 85 0 85 55 0 55 0 0 -85z m184 -675 c43 -11 108 -34 143 -50 l65 -30
		-25 -42 c-14 -24 -30 -42 -34 -41 -4 1 -53 19 -108 40 l-100 38 -185 0 -185 0
		-103 -39 c-112 -41 -119 -41 -147 15 -14 27 -14 28 28 48 66 32 155 61 232 77
		102 20 317 12 419 -16z m-12 -348 c85 -23 207 -77 280 -123 51 -33 51 -35 10
		-88 l-19 -23 -74 40 c-147 81 -274 114 -429 114 -153 -1 -327 -48 -443 -122
		-26 -16 -51 -30 -55 -30 -4 0 -19 18 -35 40 l-27 39 71 41 c120 71 241 115
		364 134 72 11 282 -2 357 -22z"/>
	</symbol>
	
	<symbol id="king" width="1969pt" height="4633pt" viewBox="0 0 1969 4633">
		<title>A king chess piece</title>
		<path d="M8602 45155 c-225 -49 -414 -234 -472 -461 -19 -75 -20 -116 -20
		-1535 l0 -1458 -1472 -4 c-1383 -2 -1477 -4 -1532 -21 -225 -68 -390 -234
		-453 -457 -17 -60 -18 -135 -18 -1314 0 -1382 -4 -1295 67 -1444 31 -65 57
		-100 116 -160 82 -83 148 -125 252 -163 l65 -23 1485 -5 1485 -5 3 -1097 2
		-1098 -2147 -2 -2148 -3 -65 -22 c-263 -90 -364 -338 -265 -653 92 -292 2230
		-6898 2251 -6955 66 -175 218 -358 383 -460 44 -27 80 -52 80 -55 0 -3 -26
		-17 -57 -32 -218 -104 -365 -358 -349 -605 15 -216 150 -429 331 -520 l38 -20
		-58 -33 c-92 -51 -192 -159 -241 -260 -94 -192 -95 -376 -3 -568 31 -64 58
		-102 118 -163 l78 -79 -432 0 c-396 0 -437 -2 -508 -20 -214 -54 -384 -214
		-452 -423 -22 -69 -27 -100 -27 -192 1 -184 59 -323 189 -452 l74 -73 -435 0
		c-272 0 -454 -4 -487 -11 -80 -16 -225 -91 -289 -148 -122 -109 -193 -255
		-211 -432 -14 -143 -5 -1279 11 -1344 18 -73 84 -203 130 -258 82 -98 172
		-160 297 -204 l79 -28 1092 -3 1092 -3 -5 -32 c-3 -17 -333 -3101 -734 -6852
		-402 -3751 -733 -6837 -736 -6857 l-6 -38 -311 0 c-225 -1 -334 -5 -392 -15
		-235 -42 -439 -233 -500 -470 -20 -77 -20 -232 0 -310 27 -107 83 -203 166
		-287 l76 -78 -421 0 c-476 0 -506 -4 -645 -70 -111 -54 -230 -170 -284 -277
		-71 -144 -68 -74 -65 -1478 l3 -1260 22 -65 c33 -96 89 -184 167 -261 l69 -69
		-436 0 c-274 0 -456 -4 -489 -11 -29 -6 -94 -31 -145 -55 -151 -72 -269 -207
		-326 -374 -22 -64 -22 -73 -25 -740 -3 -761 -4 -754 71 -903 78 -156 243 -286
		417 -329 46 -11 1421 -13 8260 -13 7930 0 8207 1 8264 18 229 71 382 224 453
		453 17 55 18 108 18 739 0 761 2 735 -73 880 -51 100 -173 220 -273 268 -134
		66 -144 67 -631 67 -241 0 -438 2 -438 4 0 2 33 37 74 78 55 56 84 97 115 159
		75 153 72 81 69 1477 l-3 1247 -23 65 c-63 175 -174 306 -322 379 -138 67
		-168 71 -647 71 l-422 0 72 73 c339 340 196 906 -268 1058 -68 22 -85 23 -482
		27 -309 2 -413 6 -413 15 -1 7 -333 3107 -738 6889 l-738 6877 1156 3 c1090 3
		1158 4 1210 22 170 56 314 176 387 323 75 149 74 141 71 903 l-3 675 -27 73
		c-71 194 -218 340 -408 405 -63 21 -82 22 -523 25 l-458 3 68 68 c79 79 135
		168 166 266 18 56 22 94 22 190 0 96 -4 134 -22 190 -30 95 -86 185 -159 259
		-73 72 -145 117 -246 154 l-73 27 -459 3 -459 3 56 50 c74 66 147 177 178 270
		21 64 24 92 24 209 -1 120 -4 142 -27 202 -54 142 -151 262 -270 334 l-60 37
		53 30 c30 17 86 63 125 101 125 125 184 268 184 446 0 113 -17 188 -67 290
		-48 100 -167 220 -271 274 l-73 38 68 40 c88 53 105 66 186 146 74 72 163 197
		197 276 15 36 1856 5715 2255 6956 53 166 66 269 46 371 -32 161 -130 273
		-292 331 l-64 23 -2147 3 -2148 2 0 1100 0 1100 1463 0 c1630 0 1510 -5 1665
		71 156 76 277 229 322 405 19 75 20 113 20 1318 0 1005 -3 1251 -14 1296 -56
		229 -211 395 -441 472 l-70 23 -1472 3 -1473 3 0 1440 c0 1267 -2 1449 -16
		1517 -49 241 -230 431 -470 492 -75 19 -114 20 -1313 19 -1004 0 -1248 -3
		-1299 -14z"/>
	</symbol>
	
	<symbol id="knight" width="236pt" height="236pt" viewBox="0 0 236 236">
		<title>A knight chess piece</title>
		<path d="M1374 2177 c-29 -24 -36 -26 -100 -20 -88 7 -165 -9 -253 -53 -169
		-85 -263 -269 -292 -574 -21 -221 18 -504 87 -642 l24 -48 324 0 323 0 12 88
		c6 48 14 114 17 147 l6 60 -40 32 c-95 77 -214 269 -247 401 -27 104 -6 186
		22 89 19 -64 44 -83 107 -78 28 2 85 4 126 5 67 1 79 -2 118 -28 42 -28 43
		-29 63 -10 30 27 79 115 79 142 0 15 -31 53 -98 120 -73 72 -108 115 -135 169
		-21 40 -48 80 -61 90 -18 14 -22 26 -18 53 2 25 -2 43 -15 59 l-19 23 -30 -25z"/>
		<path d="M812 818 c-15 -15 -16 -50 -2 -64 7 -7 -4 -39 -37 -100 -45 -84 -48
		-93 -48 -165 0 -61 5 -85 26 -125 l25 -49 374 -3 c424 -3 399 -7 425 81 28 93
		13 189 -45 294 -25 44 -27 53 -15 63 18 15 19 52 3 68 -17 17 -689 17 -706 0z"/>
		<path d="M744 264 c-28 -67 -49 -64 417 -64 l422 0 -6 36 c-11 67 11 64 -424
		64 l-394 0 -15 -36z"/>
	</symbol>

	<symbol id="queen" width="300pt" height="600pt" viewBox="0 0 300 600">
		<title>A queen chess piece</title>
		<path d="M1267 5794 c-26 -26 -27 -30 -29 -173 l-3 -146 -77 -3 -78 -3 0 38
		c0 59 -19 112 -45 129 -19 13 -49 15 -155 12 -124 -3 -133 -4 -151 -27 -14
		-17 -19 -39 -19 -87 l0 -64 -68 0 c-85 0 -112 -16 -112 -67 0 -34 328 -1060
		356 -1115 8 -15 24 -34 36 -42 l22 -16 -21 -15 c-26 -18 -46 -74 -37 -101 4
		-10 16 -29 27 -41 l20 -23 -21 -22 c-31 -34 -35 -68 -13 -110 l19 -38 -73 0
		c-64 0 -77 -3 -104 -26 -24 -20 -31 -34 -31 -63 0 -20 7 -46 15 -57 14 -21 13
		-21 -62 -26 -70 -5 -79 -8 -105 -37 -27 -31 -28 -34 -28 -152 0 -120 0 -121
		29 -150 l29 -29 176 0 c97 0 176 -4 176 -9 0 -5 -49 -470 -110 -1034 -60 -564
		-110 -1032 -110 -1040 0 -10 -19 -16 -67 -20 -59 -6 -72 -10 -96 -37 -30 -34
		-34 -67 -12 -109 l14 -29 -74 -4 c-66 -3 -78 -7 -102 -31 l-28 -27 0 -214 c0
		-196 2 -216 19 -235 l19 -21 -67 0 c-72 0 -118 -17 -136 -49 -5 -11 -10 -74
		-10 -141 0 -121 0 -122 29 -151 l29 -29 1270 0 1270 0 31 31 c31 31 31 31 31
		144 0 67 -5 125 -12 140 -17 38 -58 55 -133 55 l-66 0 15 22 c13 19 16 58 16
		231 0 124 -4 216 -10 228 -18 32 -64 49 -136 49 -64 0 -66 1 -51 18 46 51 19
		132 -50 151 -21 6 -59 11 -85 11 -27 0 -48 5 -48 10 0 6 -49 471 -110 1034
		-60 563 -110 1031 -110 1040 0 14 21 16 181 16 110 0 188 4 201 11 11 6 26 26
		34 44 18 44 19 220 1 255 -18 37 -72 60 -140 60 -58 0 -58 0 -43 22 26 36 20
		85 -13 119 -27 27 -35 29 -106 29 l-76 0 15 22 c23 32 20 90 -5 122 l-20 26
		20 26 c30 38 28 98 -3 129 l-25 25 29 28 c19 19 38 60 60 128 17 54 96 300
		176 545 79 245 144 458 144 473 0 47 -31 66 -110 66 l-70 0 0 55 c0 65 -20
		110 -52 119 -13 3 -76 6 -140 6 -109 0 -119 -2 -144 -24 -24 -20 -28 -32 -32
		-90 l-4 -66 -79 0 -79 0 0 146 0 146 -29 29 -29 29 -215 0 -214 0 -26 -26z"/>
	</symbol>

	<symbol id="rook" width="512pt" height="512pt" viewBox="0 0 512 512">
		<title>A rook chess piece</title>
		<path d="M1692 3983 c-18 -9 -45 -32 -60 -51 l-27 -35 0 -386 0 -386 26 -56
		c33 -71 87 -125 158 -158 l56 -26 715 0 715 0 56 26 c71 33 125 87 158 158
		l26 56 3 373 c3 416 3 417 -66 470 -33 25 -44 27 -144 30 l-108 4 0 -161 0
		-161 -160 0 -160 0 0 160 0 160 -320 0 -320 0 0 -160 0 -160 -160 0 -160 0 0
		160 0 160 -97 0 c-70 0 -107 -5 -131 -17z"/>
		<path d="M1920 2513 c-1 -592 -71 -928 -240 -1138 -61 -76 -80 -121 -80 -192
		l0 -63 960 0 960 0 0 63 c0 71 -19 116 -80 192 -169 210 -239 546 -240 1138
		l0 207 -640 0 -640 0 0 -207z"/>
		<path d="M1372 943 c-18 -9 -45 -32 -60 -51 l-27 -35 0 -217 0 -217 27 -35
		c56 -73 -34 -68 1248 -68 1282 0 1192 -5 1248 68 l27 35 0 217 0 217 -27 35
		c-56 73 35 68 -1250 68 -1047 0 -1156 -2 -1186 -17z"/>
	</symbol>
	
	<symbol id="satellite" width="512pt" height="512pt" viewBox="0 0 512 512">
		<title>A satellite chess piece</title>
		<path d="M1729 4306 c-80 -22 -148 -68 -221 -146 -240 -256 -400 -567 -469
		-906 -27 -137 -37 -437 -19 -582 70 -566 418 -1084 916 -1365 432 -244 946
		-301 1432 -161 351 102 764 377 854 571 28 59 32 80 36 175 6 135 -9 228 -59
		382 -81 248 -275 583 -487 843 l-59 72 -112 -113 -113 -113 80 -104 c185 -242
		318 -477 386 -680 63 -188 69 -319 16 -346 -39 -20 -129 -15 -233 11 -596 152
		-1422 887 -1767 1574 -100 200 -143 339 -144 470 -1 111 4 116 139 109 128 -6
		242 -42 430 -136 152 -76 305 -172 457 -287 54 -41 101 -74 105 -74 5 0 57 49
		117 109 l108 109 -98 78 c-316 252 -713 457 -985 509 -96 18 -246 18 -310 1z"/>
		<path d="M3631 4105 c-100 -28 -195 -119 -221 -213 -13 -48 -13 -153 0 -188
		11 -27 2 -37 -310 -349 -176 -176 -320 -326 -320 -333 0 -47 122 -172 168
		-172 21 0 88 62 344 318 l318 317 93 0 c80 0 99 3 149 28 62 31 116 84 149
		149 31 59 37 168 14 237 -52 156 -226 250 -384 206z"/>
		<path d="M1370 1299 c-14 -5 -190 -175 -392 -377 -403 -402 -409 -409 -330
		-432 26 -8 286 -10 854 -8 761 3 818 4 835 20 16 17 16 19 -3 45 -34 47 -826
		742 -858 753 -35 12 -73 12 -106 -1z"/>
	</symbol>
</svg>