<?xml version="1.0" standalone="no"?>
<!DOCTYPE svg PUBLIC "-//W3C//DTD SVG 20010904//EN"
 "http://www.w3.org/TR/2001/REC-SVG-20010904/DTD/svg10.dtd">
<svg version="1.0" xmlns="http://www.w3.org/2000/svg"
 width="1969.000000pt" height="4633.000000pt" viewBox="0 0 1969.000000 4633.000000"
 preserveAspectRatio="xMidYMid meet">
<metadata>
Created by potrace 1.13, written by Peter Selinger 2001-2015
</metadata>
<g transform="translate(0.000000,4633.000000) scale(0.100000,-0.100000)"
fill="#000000" stroke="none">
<path d="M8602 45155 c-225 -49 -414 -234 -472 -461 -19 -75 -20 -116 -20
-1535 l0 -1458 -1472 -4 c-1383 -2 -1477 -4 -1532 -21 -225 -68 -390 -234
-453 -457 -17 -60 -18 -135 -18 -1314 0 -1382 -4 -1295 67 -1444 31 -65 57
-100 116 -160 82 -83 148 -125 252 -163 l65 -23 1485 -5 1485 -5 3 -1097 2
-1098 -2147 -2 -2148 -3 -65 -22 c-263 -90 -364 -338 -265 -653 92 -292 2230
-6898 2251 -6955 66 -175 218 -358 383 -460 44 -27 80 -52 80 -55 0 -3 -26
-17 -57 -32 -218 -104 -365 -358 -349 -605 15 -216 150 -429 331 -520 l38 -20
-58 -33 c-92 -51 -192 -159 -241 -260 -94 -192 -95 -376 -3 -568 31 -64 58
-102 118 -163 l78 -79 -432 0 c-396 0 -437 -2 -508 -20 -214 -54 -384 -214
-452 -423 -22 -69 -27 -100 -27 -192 1 -184 59 -323 189 -452 l74 -73 -435 0
c-272 0 -454 -4 -487 -11 -80 -16 -225 -91 -289 -148 -122 -109 -193 -255
-211 -432 -14 -143 -5 -1279 11 -1344 18 -73 84 -203 130 -258 82 -98 172
-160 297 -204 l79 -28 1092 -3 1092 -3 -5 -32 c-3 -17 -333 -3101 -734 -6852
-402 -3751 -733 -6837 -736 -6857 l-6 -38 -311 0 c-225 -1 -334 -5 -392 -15
-235 -42 -439 -233 -500 -470 -20 -77 -20 -232 0 -310 27 -107 83 -203 166
-287 l76 -78 -421 0 c-476 0 -506 -4 -645 -70 -111 -54 -230 -170 -284 -277
-71 -144 -68 -74 -65 -1478 l3 -1260 22 -65 c33 -96 89 -184 167 -261 l69 -69
-436 0 c-274 0 -456 -4 -489 -11 -29 -6 -94 -31 -145 -55 -151 -72 -269 -207
-326 -374 -22 -64 -22 -73 -25 -740 -3 -761 -4 -754 71 -903 78 -156 243 -286
417 -329 46 -11 1421 -13 8260 -13 7930 0 8207 1 8264 18 229 71 382 224 453
453 17 55 18 108 18 739 0 761 2 735 -73 880 -51 100 -173 220 -273 268 -134
66 -144 67 -631 67 -241 0 -438 2 -438 4 0 2 33 37 74 78 55 56 84 97 115 159
75 153 72 81 69 1477 l-3 1247 -23 65 c-63 175 -174 306 -322 379 -138 67
-168 71 -647 71 l-422 0 72 73 c339 340 196 906 -268 1058 -68 22 -85 23 -482
27 -309 2 -413 6 -413 15 -1 7 -333 3107 -738 6889 l-738 6877 1156 3 c1090 3
1158 4 1210 22 170 56 314 176 387 323 75 149 74 141 71 903 l-3 675 -27 73
c-71 194 -218 340 -408 405 -63 21 -82 22 -523 25 l-458 3 68 68 c79 79 135
168 166 266 18 56 22 94 22 190 0 96 -4 134 -22 190 -30 95 -86 185 -159 259
-73 72 -145 117 -246 154 l-73 27 -459 3 -459 3 56 50 c74 66 147 177 178 270
21 64 24 92 24 209 -1 120 -4 142 -27 202 -54 142 -151 262 -270 334 l-60 37
53 30 c30 17 86 63 125 101 125 125 184 268 184 446 0 113 -17 188 -67 290
-48 100 -167 220 -271 274 l-73 38 68 40 c88 53 105 66 186 146 74 72 163 197
197 276 15 36 1856 5715 2255 6956 53 166 66 269 46 371 -32 161 -130 273
-292 331 l-64 23 -2147 3 -2148 2 0 1100 0 1100 1463 0 c1630 0 1510 -5 1665
71 156 76 277 229 322 405 19 75 20 113 20 1318 0 1005 -3 1251 -14 1296 -56
229 -211 395 -441 472 l-70 23 -1472 3 -1473 3 0 1440 c0 1267 -2 1449 -16
1517 -49 241 -230 431 -470 492 -75 19 -114 20 -1313 19 -1004 0 -1248 -3
-1299 -14z"/>
</g>
</svg>
