<?xml version="1.0" standalone="no"?>
<!DOCTYPE svg PUBLIC "-//W3C//DTD SVG 20010904//EN"
 "http://www.w3.org/TR/2001/REC-SVG-20010904/DTD/svg10.dtd">
<svg version="1.0" xmlns="http://www.w3.org/2000/svg"
 width="236.000000pt" height="236.000000pt" viewBox="0 0 236.000000 236.000000"
 preserveAspectRatio="xMidYMid meet">
<metadata>
Created by potrace 1.13, written by Peter Selinger 2001-2015
</metadata>
<g transform="translate(0.000000,236.000000) scale(0.100000,-0.100000)"
fill="#000000" stroke="none">
<path d="M1374 2177 c-29 -24 -36 -26 -100 -20 -88 7 -165 -9 -253 -53 -169
-85 -263 -269 -292 -574 -21 -221 18 -504 87 -642 l24 -48 324 0 323 0 12 88
c6 48 14 114 17 147 l6 60 -40 32 c-95 77 -214 269 -247 401 -27 104 -6 186
22 89 19 -64 44 -83 107 -78 28 2 85 4 126 5 67 1 79 -2 118 -28 42 -28 43
-29 63 -10 30 27 79 115 79 142 0 15 -31 53 -98 120 -73 72 -108 115 -135 169
-21 40 -48 80 -61 90 -18 14 -22 26 -18 53 2 25 -2 43 -15 59 l-19 23 -30 -25z"/>
<path d="M812 818 c-15 -15 -16 -50 -2 -64 7 -7 -4 -39 -37 -100 -45 -84 -48
-93 -48 -165 0 -61 5 -85 26 -125 l25 -49 374 -3 c424 -3 399 -7 425 81 28 93
13 189 -45 294 -25 44 -27 53 -15 63 18 15 19 52 3 68 -17 17 -689 17 -706 0z"/>
<path d="M744 264 c-28 -67 -49 -64 417 -64 l422 0 -6 36 c-11 67 11 64 -424
64 l-394 0 -15 -36z"/>
</g>
</svg>
