<?xml version="1.0" standalone="no"?>
<!DOCTYPE svg PUBLIC "-//W3C//DTD SVG 20010904//EN"
 "http://www.w3.org/TR/2001/REC-SVG-20010904/DTD/svg10.dtd">
<svg version="1.0" xmlns="http://www.w3.org/2000/svg"
 width="200.000000pt" height="200.000000pt" viewBox="0 0 200.000000 200.000000"
 preserveAspectRatio="xMidYMid meet">
<metadata>
Created by potrace 1.13, written by Peter Selinger 2001-2015
</metadata>
<g transform="translate(0.000000,200.000000) scale(0.100000,-0.100000)"
fill="#000000" stroke="none">
<path d="M963 1949 c-88 -16 -157 -70 -205 -162 -20 -36 -23 -57 -23 -142 0
-116 16 -156 84 -218 52 -47 73 -52 206 -52 85 0 117 4 142 18 140 76 166 326
48 465 -60 70 -164 107 -252 91z"/>
<path d="M761 1308 c-90 -64 -102 -80 -78 -106 34 -38 99 -47 322 -47 171 0
220 3 266 17 105 33 103 64 -8 138 -64 43 -81 50 -102 43 -32 -10 -255 -10
-296 0 -26 6 -40 0 -104 -45z"/>
<path d="M886 1053 c-12 -140 -24 -184 -102 -372 -18 -43 -18 -44 5 -62 54
-44 200 -60 312 -35 79 17 139 47 139 69 0 7 -13 38 -30 68 -36 68 -67 195
-76 312 -6 79 -9 87 -26 81 -24 -7 -195 -7 -207 0 -5 4 -12 -23 -15 -61z"/>
<path d="M1280 649 c0 -61 -87 -99 -243 -106 -85 -5 -123 -2 -174 12 -69 19
-133 64 -133 94 -1 29 -40 -28 -40 -58 0 -36 34 -67 101 -93 75 -30 275 -37
374 -14 74 18 149 56 159 81 6 17 -7 56 -29 88 -15 21 -15 21 -15 -4z"/>
<path d="M605 541 c-46 -28 -66 -56 -72 -98 -9 -72 63 -126 207 -154 85 -16
405 -17 490 -1 164 32 260 84 260 143 0 32 -41 84 -88 111 -29 17 -30 17 -45
-6 -39 -59 -221 -102 -397 -93 -134 7 -227 35 -275 82 -40 41 -41 41 -80 16z"/>
<path d="M1465 256 c-40 -63 -157 -100 -365 -117 -242 -20 -450 20 -545 103
l-45 40 0 -32 c0 -95 121 -174 306 -199 159 -23 382 -7 516 35 118 38 185 111
161 177 l-8 24 -20 -31z"/>
</g>
</svg>
