<?xml version="1.0" standalone="no"?>
<!DOCTYPE svg PUBLIC "-//W3C//DTD SVG 20010904//EN"
 "http://www.w3.org/TR/2001/REC-SVG-20010904/DTD/svg10.dtd">
<svg version="1.0" xmlns="http://www.w3.org/2000/svg"
 width="300.000000pt" height="600.000000pt" viewBox="0 0 300.000000 600.000000"
 preserveAspectRatio="xMidYMid meet">
<metadata>
Created by potrace 1.13, written by Peter Selinger 2001-2015
</metadata>
<g transform="translate(0.000000,600.000000) scale(0.100000,-0.100000)"
fill="#000000" stroke="none">
<path d="M1267 5794 c-26 -26 -27 -30 -29 -173 l-3 -146 -77 -3 -78 -3 0 38
c0 59 -19 112 -45 129 -19 13 -49 15 -155 12 -124 -3 -133 -4 -151 -27 -14
-17 -19 -39 -19 -87 l0 -64 -68 0 c-85 0 -112 -16 -112 -67 0 -34 328 -1060
356 -1115 8 -15 24 -34 36 -42 l22 -16 -21 -15 c-26 -18 -46 -74 -37 -101 4
-10 16 -29 27 -41 l20 -23 -21 -22 c-31 -34 -35 -68 -13 -110 l19 -38 -73 0
c-64 0 -77 -3 -104 -26 -24 -20 -31 -34 -31 -63 0 -20 7 -46 15 -57 14 -21 13
-21 -62 -26 -70 -5 -79 -8 -105 -37 -27 -31 -28 -34 -28 -152 0 -120 0 -121
29 -150 l29 -29 176 0 c97 0 176 -4 176 -9 0 -5 -49 -470 -110 -1034 -60 -564
-110 -1032 -110 -1040 0 -10 -19 -16 -67 -20 -59 -6 -72 -10 -96 -37 -30 -34
-34 -67 -12 -109 l14 -29 -74 -4 c-66 -3 -78 -7 -102 -31 l-28 -27 0 -214 c0
-196 2 -216 19 -235 l19 -21 -67 0 c-72 0 -118 -17 -136 -49 -5 -11 -10 -74
-10 -141 0 -121 0 -122 29 -151 l29 -29 1270 0 1270 0 31 31 c31 31 31 31 31
144 0 67 -5 125 -12 140 -17 38 -58 55 -133 55 l-66 0 15 22 c13 19 16 58 16
231 0 124 -4 216 -10 228 -18 32 -64 49 -136 49 -64 0 -66 1 -51 18 46 51 19
132 -50 151 -21 6 -59 11 -85 11 -27 0 -48 5 -48 10 0 6 -49 471 -110 1034
-60 563 -110 1031 -110 1040 0 14 21 16 181 16 110 0 188 4 201 11 11 6 26 26
34 44 18 44 19 220 1 255 -18 37 -72 60 -140 60 -58 0 -58 0 -43 22 26 36 20
85 -13 119 -27 27 -35 29 -106 29 l-76 0 15 22 c23 32 20 90 -5 122 l-20 26
20 26 c30 38 28 98 -3 129 l-25 25 29 28 c19 19 38 60 60 128 17 54 96 300
176 545 79 245 144 458 144 473 0 47 -31 66 -110 66 l-70 0 0 55 c0 65 -20
110 -52 119 -13 3 -76 6 -140 6 -109 0 -119 -2 -144 -24 -24 -20 -28 -32 -32
-90 l-4 -66 -79 0 -79 0 0 146 0 146 -29 29 -29 29 -215 0 -214 0 -26 -26z"/>
</g>
</svg>
