<?xml version="1.0" standalone="no"?>
<!DOCTYPE svg PUBLIC "-//W3C//DTD SVG 20010904//EN"
 "http://www.w3.org/TR/2001/REC-SVG-20010904/DTD/svg10.dtd">
<svg version="1.0" xmlns="http://www.w3.org/2000/svg"
 width="512.000000pt" height="512.000000pt" viewBox="0 0 512.000000 512.000000"
 preserveAspectRatio="xMidYMid meet">
<metadata>
Created by potrace 1.13, written by Peter Selinger 2001-2015
</metadata>
<g transform="translate(0.000000,512.000000) scale(0.100000,-0.100000)"
fill="#000000" stroke="none">
<path d="M1692 3983 c-18 -9 -45 -32 -60 -51 l-27 -35 0 -386 0 -386 26 -56
c33 -71 87 -125 158 -158 l56 -26 715 0 715 0 56 26 c71 33 125 87 158 158
l26 56 3 373 c3 416 3 417 -66 470 -33 25 -44 27 -144 30 l-108 4 0 -161 0
-161 -160 0 -160 0 0 160 0 160 -320 0 -320 0 0 -160 0 -160 -160 0 -160 0 0
160 0 160 -97 0 c-70 0 -107 -5 -131 -17z"/>
<path d="M1920 2513 c-1 -592 -71 -928 -240 -1138 -61 -76 -80 -121 -80 -192
l0 -63 960 0 960 0 0 63 c0 71 -19 116 -80 192 -169 210 -239 546 -240 1138
l0 207 -640 0 -640 0 0 -207z"/>
<path d="M1372 943 c-18 -9 -45 -32 -60 -51 l-27 -35 0 -217 0 -217 27 -35
c56 -73 -34 -68 1248 -68 1282 0 1192 -5 1248 68 l27 35 0 217 0 217 -27 35
c-56 73 35 68 -1250 68 -1047 0 -1156 -2 -1186 -17z"/>
</g>
</svg>
