<?xml version="1.0" standalone="no"?>
<!DOCTYPE svg PUBLIC "-//W3C//DTD SVG 20010904//EN"
 "http://www.w3.org/TR/2001/REC-SVG-20010904/DTD/svg10.dtd">
<svg version="1.0" xmlns="http://www.w3.org/2000/svg"
 width="512.000000pt" height="512.000000pt" viewBox="0 0 512.000000 512.000000"
 preserveAspectRatio="xMidYMid meet">
<metadata>
Created by potrace 1.13, written by Peter Selinger 2001-2015
</metadata>
<g transform="translate(0.000000,512.000000) scale(0.100000,-0.100000)"
fill="#000000" stroke="none">
<path d="M1729 4306 c-80 -22 -148 -68 -221 -146 -240 -256 -400 -567 -469
-906 -27 -137 -37 -437 -19 -582 70 -566 418 -1084 916 -1365 432 -244 946
-301 1432 -161 351 102 764 377 854 571 28 59 32 80 36 175 6 135 -9 228 -59
382 -81 248 -275 583 -487 843 l-59 72 -112 -113 -113 -113 80 -104 c185 -242
318 -477 386 -680 63 -188 69 -319 16 -346 -39 -20 -129 -15 -233 11 -596 152
-1422 887 -1767 1574 -100 200 -143 339 -144 470 -1 111 4 116 139 109 128 -6
242 -42 430 -136 152 -76 305 -172 457 -287 54 -41 101 -74 105 -74 5 0 57 49
117 109 l108 109 -98 78 c-316 252 -713 457 -985 509 -96 18 -246 18 -310 1z"/>
<path d="M3631 4105 c-100 -28 -195 -119 -221 -213 -13 -48 -13 -153 0 -188
11 -27 2 -37 -310 -349 -176 -176 -320 -326 -320 -333 0 -47 122 -172 168
-172 21 0 88 62 344 318 l318 317 93 0 c80 0 99 3 149 28 62 31 116 84 149
149 31 59 37 168 14 237 -52 156 -226 250 -384 206z"/>
<path d="M1370 1299 c-14 -5 -190 -175 -392 -377 -403 -402 -409 -409 -330
-432 26 -8 286 -10 854 -8 761 3 818 4 835 20 16 17 16 19 -3 45 -34 47 -826
742 -858 753 -35 12 -73 12 -106 -1z"/>
</g>
</svg>
